<?xml version="1.0" encoding="utf-8"?>
<!-- Generator: Adobe Illustrator 26.0.3, SVG Export Plug-In . SVG Version: 6.00 Build 0)  -->
<svg version="1.1" id="Layer_1" xmlns="http://www.w3.org/2000/svg" xmlns:xlink="http://www.w3.org/1999/xlink" x="0px" y="0px"
	 viewBox="0 0 512 512" style="enable-background:new 0 0 512 512;" xml:space="preserve">
<style type="text/css">
	.st0{fill:#FFFFFF;}
</style>
<path class="st0" d="M511.1,367.1c0,44.2-43,80-95.1,80s-95.1-35.8-95.1-79.1c0-44.2,43-79.1,95.1-79.1c11.3,0,22,1.9,32,4.9V148.1
	L192,224l0,208.1c-0.9,44.1-43,79.9-96.9,79.9S0,476.2,0,432c0-44.2,43-79.1,95.1-79.1c11.3,0,22,1.9,32,4.9V126.5
	c0-13,10.1-26.6,22.4-30.5L468.6,1.5C472.1,0.7,477.3,0,480,0c17.7,0,32,14.3,32,32L511.1,367.1z"/>
</svg>
