<?xml version="1.0" encoding="utf-8"?>
<!-- Generator: Adobe Illustrator 26.0.3, SVG Export Plug-In . SVG Version: 6.00 Build 0)  -->
<svg version="1.1" id="Layer_1" xmlns="http://www.w3.org/2000/svg" xmlns:xlink="http://www.w3.org/1999/xlink" x="0px" y="0px"
	 viewBox="0 0 512 512" style="enable-background:new 0 0 512 512;" xml:space="preserve">
<style type="text/css">
	.st0{fill:#FFFFFF;}
</style>
<path class="st0" d="M0,416c0-17.7,14.3-32,32-32h54.7c12.3-28.3,40.5-48,73.3-48s60.1,19.7,73.3,48H480c17.7,0,32,14.3,32,32
	s-14.3,32-32,32H233.3c-13.2,28.3-40.5,48-73.3,48s-61-19.7-73.3-48H32C14.3,448,0,433.7,0,416L0,416z M192,416
	c0-17.7-14.3-32-32-32s-32,14.3-32,32s14.3,32,32,32S192,433.7,192,416z M352,176c32.8,0,60.1,19.7,73.3,48H480
	c17.7,0,32,14.3,32,32s-14.3,32-32,32h-54.7c-13.2,28.3-40.5,48-73.3,48s-61-19.7-73.3-48H32c-17.7,0-32-14.3-32-32s14.3-32,32-32
	h246.7C291,195.7,319.2,176,352,176z M384,256c0-17.7-14.3-32-32-32s-32,14.3-32,32s14.3,32,32,32S384,273.7,384,256z M480,64
	c17.7,0,32,14.3,32,32c0,17.7-14.3,32-32,32H265.3c-13.2,28.3-40.5,48-73.3,48s-61-19.7-73.3-48H32c-17.7,0-32-14.3-32-32
	c0-17.7,14.3-32,32-32h86.7C131,35.8,159.2,16,192,16s60.1,19.8,73.3,48H480z M160,96c0,17.7,14.3,32,32,32s32-14.3,32-32
	c0-17.7-14.3-32-32-32S160,78.3,160,96z"/>
</svg>
